<mxfile host="app.diagrams.net" agent="Mozilla/5.0 (Windows NT 10.0; Win64; x64) AppleWebKit/537.36 (KHTML, like Gecko) Chrome/135.0.0.0 Safari/537.36" version="26.2.14">
  <diagram name="Page-1" id="e7e014a7-5840-1c2e-5031-d8a46d1fe8dd">
    <mxGraphModel dx="1426" dy="751" grid="1" gridSize="10" guides="1" tooltips="1" connect="1" arrows="1" fold="1" page="1" pageScale="1" pageWidth="1169" pageHeight="826" background="none" math="0" shadow="0">
      <root>
        <mxCell id="0" />
        <mxCell id="1" parent="0" />
        <mxCell id="2" value="Thread 1" style="swimlane;whiteSpace=wrap" parent="1" vertex="1">
          <mxGeometry x="155.5" y="40" width="404.5" height="700" as="geometry" />
        </mxCell>
        <mxCell id="5" value="" style="ellipse;shape=startState;fillColor=#000000;strokeColor=#ff0000;" parent="2" vertex="1">
          <mxGeometry x="10" y="55.5" width="30" height="30" as="geometry" />
        </mxCell>
        <mxCell id="6" value="" style="edgeStyle=elbowEdgeStyle;elbow=horizontal;verticalAlign=bottom;endArrow=open;endSize=8;strokeColor=#FF0000;endFill=1;rounded=0" parent="2" source="5" edge="1">
          <mxGeometry x="100" y="40" as="geometry">
            <mxPoint x="100" y="71" as="targetPoint" />
            <Array as="points">
              <mxPoint x="60" y="42" />
            </Array>
          </mxGeometry>
        </mxCell>
        <mxCell id="PX6yEsaKBfY47TFhR6qC-51" style="edgeStyle=orthogonalEdgeStyle;rounded=0;orthogonalLoop=1;jettySize=auto;html=1;exitX=0.5;exitY=1;exitDx=0;exitDy=0;" edge="1" parent="2" source="7">
          <mxGeometry relative="1" as="geometry">
            <mxPoint x="195" y="160" as="targetPoint" />
          </mxGeometry>
        </mxCell>
        <mxCell id="PX6yEsaKBfY47TFhR6qC-52" value="Submit Application" style="edgeLabel;html=1;align=center;verticalAlign=middle;resizable=0;points=[];" vertex="1" connectable="0" parent="PX6yEsaKBfY47TFhR6qC-51">
          <mxGeometry x="-0.1069" y="-1" relative="1" as="geometry">
            <mxPoint as="offset" />
          </mxGeometry>
        </mxCell>
        <mxCell id="7" value="Loan Application Applied" style="gradientColor=none;rounded=1;glass=0;shadow=0;labelBackgroundColor=none;" parent="2" vertex="1">
          <mxGeometry x="110" y="42" width="170" height="57" as="geometry" />
        </mxCell>
        <mxCell id="8" value="Applied " style="rounded=1;" parent="2" vertex="1">
          <mxGeometry x="140" y="160" width="110" height="50" as="geometry" />
        </mxCell>
        <mxCell id="PX6yEsaKBfY47TFhR6qC-57" style="edgeStyle=orthogonalEdgeStyle;rounded=0;orthogonalLoop=1;jettySize=auto;html=1;exitX=0.5;exitY=1;exitDx=0;exitDy=0;fillColor=#d5e8d4;strokeColor=#82b366;" edge="1" parent="2">
          <mxGeometry relative="1" as="geometry">
            <mxPoint x="70" y="400" as="targetPoint" />
            <mxPoint x="195" y="320" as="sourcePoint" />
            <Array as="points">
              <mxPoint x="195" y="370" />
              <mxPoint x="71" y="370" />
            </Array>
          </mxGeometry>
        </mxCell>
        <mxCell id="PX6yEsaKBfY47TFhR6qC-66" value="Review Passed" style="edgeLabel;html=1;align=center;verticalAlign=middle;resizable=0;points=[];" vertex="1" connectable="0" parent="PX6yEsaKBfY47TFhR6qC-57">
          <mxGeometry x="0.1078" relative="1" as="geometry">
            <mxPoint as="offset" />
          </mxGeometry>
        </mxCell>
        <mxCell id="10" value="Under Review " style="rounded=1;" parent="2" vertex="1">
          <mxGeometry x="140" y="280" width="110" height="40" as="geometry" />
        </mxCell>
        <mxCell id="11" value="" style="endArrow=open;strokeColor=light-dark(#050505, #ff9090);endFill=1;rounded=0;entryX=0.5;entryY=0;entryDx=0;entryDy=0;" parent="2" source="8" target="10" edge="1">
          <mxGeometry relative="1" as="geometry">
            <mxPoint x="195" y="270" as="targetPoint" />
          </mxGeometry>
        </mxCell>
        <mxCell id="PX6yEsaKBfY47TFhR6qC-56" value="Begin Review" style="edgeLabel;html=1;align=center;verticalAlign=middle;resizable=0;points=[];" vertex="1" connectable="0" parent="11">
          <mxGeometry x="0.1667" y="4" relative="1" as="geometry">
            <mxPoint as="offset" />
          </mxGeometry>
        </mxCell>
        <mxCell id="PX6yEsaKBfY47TFhR6qC-62" style="edgeStyle=orthogonalEdgeStyle;rounded=0;orthogonalLoop=1;jettySize=auto;html=1;exitX=0.5;exitY=1;exitDx=0;exitDy=0;fillColor=#f8cecc;strokeColor=#b85450;" edge="1" parent="2">
          <mxGeometry relative="1" as="geometry">
            <mxPoint x="320" y="400" as="targetPoint" />
            <mxPoint x="195" y="320" as="sourcePoint" />
            <Array as="points">
              <mxPoint x="200" y="320" />
              <mxPoint x="200" y="370" />
              <mxPoint x="320" y="370" />
            </Array>
          </mxGeometry>
        </mxCell>
        <mxCell id="PX6yEsaKBfY47TFhR6qC-67" value="Review Failed" style="edgeLabel;html=1;align=center;verticalAlign=middle;resizable=0;points=[];" vertex="1" connectable="0" parent="PX6yEsaKBfY47TFhR6qC-62">
          <mxGeometry x="0.2" y="2" relative="1" as="geometry">
            <mxPoint as="offset" />
          </mxGeometry>
        </mxCell>
        <mxCell id="PX6yEsaKBfY47TFhR6qC-111" value="" style="edgeStyle=orthogonalEdgeStyle;rounded=0;orthogonalLoop=1;jettySize=auto;html=1;" edge="1" parent="2" source="PX6yEsaKBfY47TFhR6qC-68" target="PX6yEsaKBfY47TFhR6qC-86">
          <mxGeometry relative="1" as="geometry" />
        </mxCell>
        <mxCell id="PX6yEsaKBfY47TFhR6qC-112" value="Disburse Funds" style="edgeLabel;html=1;align=center;verticalAlign=middle;resizable=0;points=[];" vertex="1" connectable="0" parent="PX6yEsaKBfY47TFhR6qC-111">
          <mxGeometry x="-0.04" relative="1" as="geometry">
            <mxPoint as="offset" />
          </mxGeometry>
        </mxCell>
        <mxCell id="PX6yEsaKBfY47TFhR6qC-68" value="Approved " style="rounded=1;fillColor=#d5e8d4;strokeColor=#82b366;" vertex="1" parent="2">
          <mxGeometry x="20" y="400" width="110" height="30" as="geometry" />
        </mxCell>
        <mxCell id="PX6yEsaKBfY47TFhR6qC-110" value="" style="edgeStyle=orthogonalEdgeStyle;rounded=0;orthogonalLoop=1;jettySize=auto;html=1;" edge="1" parent="2" source="PX6yEsaKBfY47TFhR6qC-69" target="PX6yEsaKBfY47TFhR6qC-104">
          <mxGeometry relative="1" as="geometry" />
        </mxCell>
        <mxCell id="PX6yEsaKBfY47TFhR6qC-113" value="Close Application" style="edgeLabel;html=1;align=center;verticalAlign=middle;resizable=0;points=[];" vertex="1" connectable="0" parent="PX6yEsaKBfY47TFhR6qC-110">
          <mxGeometry x="0.04" y="1" relative="1" as="geometry">
            <mxPoint as="offset" />
          </mxGeometry>
        </mxCell>
        <mxCell id="PX6yEsaKBfY47TFhR6qC-69" value="Rejected" style="rounded=1;fillColor=#f8cecc;strokeColor=#b85450;" vertex="1" parent="2">
          <mxGeometry x="270" y="400" width="110" height="30" as="geometry" />
        </mxCell>
        <mxCell id="PX6yEsaKBfY47TFhR6qC-86" value="Disbursed" style="rounded=1;" vertex="1" parent="2">
          <mxGeometry x="35" y="500" width="80" height="40" as="geometry" />
        </mxCell>
        <mxCell id="PX6yEsaKBfY47TFhR6qC-104" value="Closed " style="rounded=1;" vertex="1" parent="2">
          <mxGeometry x="285" y="500" width="80" height="40" as="geometry" />
        </mxCell>
        <mxCell id="PX6yEsaKBfY47TFhR6qC-118" style="edgeStyle=orthogonalEdgeStyle;rounded=0;orthogonalLoop=1;jettySize=auto;html=1;exitX=0.5;exitY=1;exitDx=0;exitDy=0;" edge="1" parent="2" source="PX6yEsaKBfY47TFhR6qC-86">
          <mxGeometry relative="1" as="geometry">
            <mxPoint x="620" y="90" as="targetPoint" />
            <mxPoint x="250" y="630" as="sourcePoint" />
            <Array as="points">
              <mxPoint x="75" y="630" />
              <mxPoint x="420" y="630" />
              <mxPoint x="420" y="50" />
              <mxPoint x="620" y="50" />
            </Array>
          </mxGeometry>
        </mxCell>
        <mxCell id="PX6yEsaKBfY47TFhR6qC-149" value="Start Repayment Process" style="edgeLabel;html=1;align=center;verticalAlign=middle;resizable=0;points=[];" vertex="1" connectable="0" parent="PX6yEsaKBfY47TFhR6qC-118">
          <mxGeometry x="-0.5841" y="1" relative="1" as="geometry">
            <mxPoint as="offset" />
          </mxGeometry>
        </mxCell>
        <mxCell id="3" value="Thread 2" style="swimlane;whiteSpace=wrap" parent="1" vertex="1">
          <mxGeometry x="560" y="40" width="404.5" height="700" as="geometry" />
        </mxCell>
        <mxCell id="PX6yEsaKBfY47TFhR6qC-153" style="edgeStyle=orthogonalEdgeStyle;rounded=0;orthogonalLoop=1;jettySize=auto;html=1;exitX=0;exitY=0.5;exitDx=0;exitDy=0;" edge="1" parent="3" source="PX6yEsaKBfY47TFhR6qC-150" target="PX6yEsaKBfY47TFhR6qC-151">
          <mxGeometry relative="1" as="geometry">
            <mxPoint x="95.5" y="110" as="targetPoint" />
          </mxGeometry>
        </mxCell>
        <mxCell id="PX6yEsaKBfY47TFhR6qC-157" value="Missed Payments" style="edgeLabel;html=1;align=center;verticalAlign=middle;resizable=0;points=[];" vertex="1" connectable="0" parent="PX6yEsaKBfY47TFhR6qC-153">
          <mxGeometry x="0.5578" y="-1" relative="1" as="geometry">
            <mxPoint as="offset" />
          </mxGeometry>
        </mxCell>
        <mxCell id="PX6yEsaKBfY47TFhR6qC-154" style="edgeStyle=orthogonalEdgeStyle;rounded=0;orthogonalLoop=1;jettySize=auto;html=1;exitX=1;exitY=0.5;exitDx=0;exitDy=0;entryX=0.5;entryY=0;entryDx=0;entryDy=0;" edge="1" parent="3" source="PX6yEsaKBfY47TFhR6qC-150" target="PX6yEsaKBfY47TFhR6qC-152">
          <mxGeometry relative="1" as="geometry">
            <mxPoint x="325.5" y="110" as="targetPoint" />
          </mxGeometry>
        </mxCell>
        <mxCell id="PX6yEsaKBfY47TFhR6qC-159" value="Complete Payments&amp;nbsp;" style="edgeLabel;html=1;align=center;verticalAlign=middle;resizable=0;points=[];" vertex="1" connectable="0" parent="PX6yEsaKBfY47TFhR6qC-154">
          <mxGeometry x="0.5857" relative="1" as="geometry">
            <mxPoint as="offset" />
          </mxGeometry>
        </mxCell>
        <mxCell id="PX6yEsaKBfY47TFhR6qC-150" value="Repayment " style="rounded=1;" vertex="1" parent="3">
          <mxGeometry x="165.5" y="90" width="94.5" height="40" as="geometry" />
        </mxCell>
        <mxCell id="PX6yEsaKBfY47TFhR6qC-151" value="Delinquent" style="rounded=1;" vertex="1" parent="3">
          <mxGeometry x="30" y="170" width="110.5" height="40" as="geometry" />
        </mxCell>
        <mxCell id="PX6yEsaKBfY47TFhR6qC-152" value="Paid Off" style="rounded=1;" vertex="1" parent="3">
          <mxGeometry x="280" y="170" width="120" height="40" as="geometry" />
        </mxCell>
        <mxCell id="PX6yEsaKBfY47TFhR6qC-164" style="edgeStyle=orthogonalEdgeStyle;rounded=0;orthogonalLoop=1;jettySize=auto;html=1;exitX=0;exitY=0.5;exitDx=0;exitDy=0;exitPerimeter=0;" edge="1" parent="3" source="PX6yEsaKBfY47TFhR6qC-160">
          <mxGeometry relative="1" as="geometry">
            <mxPoint x="80.5" y="330" as="targetPoint" />
            <Array as="points">
              <mxPoint x="80" y="290" />
              <mxPoint x="81" y="290" />
            </Array>
          </mxGeometry>
        </mxCell>
        <mxCell id="PX6yEsaKBfY47TFhR6qC-175" value="Catch up payments" style="edgeLabel;html=1;align=center;verticalAlign=middle;resizable=0;points=[];" vertex="1" connectable="0" parent="PX6yEsaKBfY47TFhR6qC-164">
          <mxGeometry x="0.1067" y="-3" relative="1" as="geometry">
            <mxPoint as="offset" />
          </mxGeometry>
        </mxCell>
        <mxCell id="PX6yEsaKBfY47TFhR6qC-160" value="" style="shape=line;html=1;strokeWidth=6;strokeColor=#000000;" vertex="1" parent="3">
          <mxGeometry x="80" y="260" width="260" height="10" as="geometry" />
        </mxCell>
        <mxCell id="PX6yEsaKBfY47TFhR6qC-165" style="edgeStyle=orthogonalEdgeStyle;rounded=0;orthogonalLoop=1;jettySize=auto;html=1;exitX=0;exitY=0.5;exitDx=0;exitDy=0;exitPerimeter=0;" edge="1" parent="3">
          <mxGeometry relative="1" as="geometry">
            <mxPoint x="210.5" y="333" as="targetPoint" />
            <mxPoint x="210" y="268" as="sourcePoint" />
            <Array as="points">
              <mxPoint x="210" y="293" />
              <mxPoint x="211" y="293" />
            </Array>
          </mxGeometry>
        </mxCell>
        <mxCell id="PX6yEsaKBfY47TFhR6qC-176" value="Prolonged Non-payment" style="edgeLabel;html=1;align=center;verticalAlign=middle;resizable=0;points=[];" vertex="1" connectable="0" parent="PX6yEsaKBfY47TFhR6qC-165">
          <mxGeometry x="0.0151" y="-1" relative="1" as="geometry">
            <mxPoint as="offset" />
          </mxGeometry>
        </mxCell>
        <mxCell id="PX6yEsaKBfY47TFhR6qC-166" style="edgeStyle=orthogonalEdgeStyle;rounded=0;orthogonalLoop=1;jettySize=auto;html=1;exitX=0;exitY=0.5;exitDx=0;exitDy=0;exitPerimeter=0;" edge="1" parent="3">
          <mxGeometry relative="1" as="geometry">
            <mxPoint x="339.5" y="331" as="targetPoint" />
            <mxPoint x="339" y="266" as="sourcePoint" />
            <Array as="points">
              <mxPoint x="339" y="291" />
              <mxPoint x="340" y="291" />
            </Array>
          </mxGeometry>
        </mxCell>
        <mxCell id="PX6yEsaKBfY47TFhR6qC-179" value="Paid Off Loan" style="edgeLabel;html=1;align=center;verticalAlign=middle;resizable=0;points=[];" vertex="1" connectable="0" parent="PX6yEsaKBfY47TFhR6qC-166">
          <mxGeometry x="0.1386" relative="1" as="geometry">
            <mxPoint as="offset" />
          </mxGeometry>
        </mxCell>
        <mxCell id="PX6yEsaKBfY47TFhR6qC-170" style="edgeStyle=orthogonalEdgeStyle;rounded=0;orthogonalLoop=1;jettySize=auto;html=1;exitX=0.5;exitY=1;exitDx=0;exitDy=0;entryX=1;entryY=0.5;entryDx=0;entryDy=0;entryPerimeter=0;" edge="1" parent="3" source="PX6yEsaKBfY47TFhR6qC-152" target="PX6yEsaKBfY47TFhR6qC-160">
          <mxGeometry relative="1" as="geometry" />
        </mxCell>
        <mxCell id="PX6yEsaKBfY47TFhR6qC-171" style="edgeStyle=orthogonalEdgeStyle;rounded=0;orthogonalLoop=1;jettySize=auto;html=1;exitX=0.5;exitY=1;exitDx=0;exitDy=0;entryX=0;entryY=0.5;entryDx=0;entryDy=0;entryPerimeter=0;" edge="1" parent="3" source="PX6yEsaKBfY47TFhR6qC-151" target="PX6yEsaKBfY47TFhR6qC-160">
          <mxGeometry relative="1" as="geometry">
            <Array as="points">
              <mxPoint x="85" y="235" />
              <mxPoint x="66" y="235" />
              <mxPoint x="66" y="265" />
            </Array>
          </mxGeometry>
        </mxCell>
        <mxCell id="PX6yEsaKBfY47TFhR6qC-172" value="In Repayment " style="rounded=1;" vertex="1" parent="3">
          <mxGeometry x="40" y="333" width="85.25" height="40" as="geometry" />
        </mxCell>
        <mxCell id="PX6yEsaKBfY47TFhR6qC-180" style="edgeStyle=orthogonalEdgeStyle;rounded=0;orthogonalLoop=1;jettySize=auto;html=1;exitX=0.5;exitY=1;exitDx=0;exitDy=0;" edge="1" parent="3" source="PX6yEsaKBfY47TFhR6qC-173">
          <mxGeometry relative="1" as="geometry">
            <mxPoint x="211.5" y="450" as="targetPoint" />
          </mxGeometry>
        </mxCell>
        <mxCell id="PX6yEsaKBfY47TFhR6qC-187" value="Write Off / Resolve" style="edgeLabel;html=1;align=center;verticalAlign=middle;resizable=0;points=[];" vertex="1" connectable="0" parent="PX6yEsaKBfY47TFhR6qC-180">
          <mxGeometry x="-0.2011" relative="1" as="geometry">
            <mxPoint as="offset" />
          </mxGeometry>
        </mxCell>
        <mxCell id="PX6yEsaKBfY47TFhR6qC-173" value="Defaulted" style="rounded=1;" vertex="1" parent="3">
          <mxGeometry x="172.75" y="333" width="77.25" height="40" as="geometry" />
        </mxCell>
        <mxCell id="PX6yEsaKBfY47TFhR6qC-182" style="edgeStyle=orthogonalEdgeStyle;rounded=0;orthogonalLoop=1;jettySize=auto;html=1;exitX=0.5;exitY=1;exitDx=0;exitDy=0;" edge="1" parent="3" source="PX6yEsaKBfY47TFhR6qC-174">
          <mxGeometry relative="1" as="geometry">
            <mxPoint x="334.5" y="450" as="targetPoint" />
          </mxGeometry>
        </mxCell>
        <mxCell id="PX6yEsaKBfY47TFhR6qC-189" value="Closed Loan" style="edgeLabel;html=1;align=center;verticalAlign=middle;resizable=0;points=[];" vertex="1" connectable="0" parent="PX6yEsaKBfY47TFhR6qC-182">
          <mxGeometry x="-0.1699" y="2" relative="1" as="geometry">
            <mxPoint as="offset" />
          </mxGeometry>
        </mxCell>
        <mxCell id="PX6yEsaKBfY47TFhR6qC-174" value="Paid Off" style="rounded=1;" vertex="1" parent="3">
          <mxGeometry x="299.75" y="333" width="70.25" height="40" as="geometry" />
        </mxCell>
        <mxCell id="PX6yEsaKBfY47TFhR6qC-183" value="Closed" style="rounded=1;" vertex="1" parent="3">
          <mxGeometry x="174.13" y="450" width="205.87" height="40" as="geometry" />
        </mxCell>
        <mxCell id="38" value="" style="ellipse;shape=endState;fillColor=#000000;strokeColor=#ff0000" parent="3" vertex="1">
          <mxGeometry x="295.5" y="570" width="30" height="30" as="geometry" />
        </mxCell>
        <mxCell id="39" value="" style="endArrow=open;strokeColor=#FF0000;endFill=1;rounded=0;" parent="3" edge="1">
          <mxGeometry relative="1" as="geometry">
            <mxPoint x="309.06" y="490" as="sourcePoint" />
            <mxPoint x="310" y="567" as="targetPoint" />
          </mxGeometry>
        </mxCell>
      </root>
    </mxGraphModel>
  </diagram>
</mxfile>
